<?xml version="1.0" standalone="no"?>
<!DOCTYPE svg PUBLIC "-//W3C//DTD SVG 20010904//EN"
 "http://www.w3.org/TR/2001/REC-SVG-20010904/DTD/svg10.dtd">
<svg version="1.0" xmlns="http://www.w3.org/2000/svg"
 width="512.000000pt" height="512.000000pt" viewBox="0 0 512.000000 512.000000"
 preserveAspectRatio="xMidYMid meet">
<metadata>
Created by potrace 1.14, written by Peter Selinger 2001-2017
</metadata>
<g transform="translate(0.000000,512.000000) scale(0.100000,-0.100000)"
fill="#000000" stroke="none">
<path d="M1405 5109 c-22 -4 -49 -10 -61 -13 -152 -33 -298 -110 -428 -227
-60 -54 -745 -957 -798 -1052 -27 -47 -77 -165 -83 -196 -2 -9 -10 -47 -18
-85 -34 -157 -9 -392 58 -543 24 -53 92 -173 105 -183 6 -5 751 -1046 796
-1113 28 -41 790 -1109 801 -1122 4 -6 28 -39 53 -75 24 -36 48 -69 52 -75 5
-5 38 -50 74 -100 104 -142 195 -215 335 -272 94 -38 173 -51 289 -48 58 2
112 5 120 8 171 46 274 101 372 201 40 41 463 617 558 760 18 26 911 1276 923
1291 46 58 405 566 434 615 167 283 174 632 18 917 -19 34 -105 158 -191 275
-599 811 -566 769 -699 868 -70 53 -156 98 -239 127 -153 52 -137 52 -1326 51
-608 0 -1123 -4 -1145 -9z m651 -646 c-8 -26 -92 -325 -99 -348 -3 -11 -28
-101 -57 -200 -29 -99 -56 -193 -60 -210 -4 -16 -27 -95 -50 -175 -31 -107
-40 -155 -36 -182 4 -27 3 -38 -6 -39 -7 0 -253 -2 -547 -2 -450 -2 -537 0
-549 12 -17 17 -10 102 12 156 15 35 613 842 670 904 38 41 101 82 141 92 17
4 155 7 308 8 261 1 278 0 273 -16z m1591 4 c29 -8 71 -29 95 -47 27 -21 148
-177 333 -427 160 -216 298 -403 307 -414 37 -46 78 -117 83 -145 10 -57 12
-103 4 -115 -5 -9 -129 -13 -546 -13 -296 -1 -544 0 -550 2 -9 3 -11 16 -7 41
4 28 -28 153 -146 566 -83 292 -153 538 -156 548 -5 16 12 17 263 17 192 0
283 -4 320 -13z m-297 -1173 c0 -7 -67 -263 -149 -571 -128 -479 -177 -661
-196 -733 -2 -8 -34 -127 -70 -265 -37 -137 -86 -322 -110 -410 -161 -609
-156 -593 -195 -635 -57 -61 -112 -53 -160 25 -12 20 -48 135 -81 258 -32 122
-73 272 -89 332 -29 104 -327 1223 -335 1255 -2 8 -11 40 -19 70 -25 94 -106
400 -137 518 -16 61 -34 123 -39 136 -5 13 -7 26 -5 28 3 2 360 4 795 4 620 0
790 -2 790 -12z"/>
</g>
</svg>
